<?xml version="1.0" standalone="no"?>
<!DOCTYPE svg PUBLIC "-//W3C//DTD SVG 20010904//EN"
 "http://www.w3.org/TR/2001/REC-SVG-20010904/DTD/svg10.dtd">
<svg version="1.0" xmlns="http://www.w3.org/2000/svg"
 width="700.000000pt" height="700.000000pt" viewBox="0 0 700.000000 700.000000"
 preserveAspectRatio="xMidYMid meet">
<metadata>
Created by potrace 1.14, written by Peter Selinger 2001-2017
</metadata>
<g transform="translate(0.000000,700.000000) scale(0.100000,-0.100000)"
fill="#000000" stroke="none">
<path d="M3913 5584 c-9 -4 -13 -28 -13 -68 0 -73 13 -89 98 -125 261 -109
501 -356 617 -636 104 -252 114 -568 26 -825 -101 -297 -330 -556 -613 -694
-41 -20 -79 -36 -86 -36 -25 0 -43 -47 -40 -107 3 -52 6 -58 26 -61 12 -2 46
6 75 17 291 110 553 343 701 621 16 30 37 67 48 83 l19 27 354 0 c399 0 385
-3 385 75 0 76 3 75 -363 75 -268 0 -318 2 -323 14 -3 8 1 39 9 68 8 29 18 87
22 128 4 41 12 78 18 82 7 4 246 8 533 8 391 0 523 3 532 12 16 16 16 124 0
135 -7 4 -251 10 -543 13 l-530 5 -8 70 c-4 39 -14 100 -23 137 -9 36 -13 71
-9 77 4 8 109 11 326 11 202 0 327 4 340 10 15 8 19 21 19 60 0 82 11 80 -396
80 l-352 0 -47 88 c-60 111 -92 157 -183 262 -127 147 -272 257 -454 344 -97
46 -142 60 -165 50z"/>
<path d="M2910 5527 c-162 -81 -245 -141 -376 -271 -121 -121 -181 -202 -252
-338 l-39 -73 -360 -5 c-285 -4 -363 -8 -376 -19 -25 -20 -23 -107 2 -121 13
-6 138 -10 340 -10 226 0 322 -3 327 -11 4 -6 -1 -44 -9 -83 -9 -39 -20 -100
-24 -136 l-8 -65 -530 -5 c-291 -3 -536 -9 -542 -13 -17 -11 -17 -119 -1 -135
9 -9 141 -12 532 -12 287 0 527 -4 533 -8 7 -4 15 -41 19 -82 3 -41 13 -99 21
-128 8 -29 12 -60 9 -68 -5 -12 -55 -14 -323 -14 -366 0 -363 1 -363 -75 0
-78 -14 -75 384 -75 403 0 360 11 419 -103 105 -199 313 -419 497 -526 64 -38
179 -93 214 -103 34 -11 40 -10 52 7 8 10 14 40 14 67 0 59 -14 74 -107 120
-117 58 -214 128 -316 230 -228 228 -347 513 -347 831 0 119 27 303 50 347 6
10 10 26 10 36 0 33 109 241 167 319 119 158 270 285 444 372 48 23 89 50 93
59 8 20 8 92 0 122 -9 33 -36 28 -154 -31z"/>
<path d="M3190 4824 c-39 -16 -40 -23 -40 -484 0 -370 2 -450 14 -466 14 -18
28 -19 248 -19 206 0 239 2 283 19 114 45 172 106 199 213 14 54 15 68 2 117
-18 66 -55 119 -109 153 l-40 25 43 41 c54 52 70 91 70 164 0 105 -47 168
-160 214 -50 20 -76 22 -275 25 -121 2 -227 1 -235 -2z m357 -216 c15 -7 31
-17 35 -23 15 -20 8 -73 -13 -99 -18 -23 -27 -26 -85 -26 l-64 0 0 80 0 80 50
0 c27 0 62 -6 77 -12z m32 -378 c30 -15 40 -27 45 -53 13 -72 -23 -108 -120
-121 -82 -10 -84 -8 -84 100 l0 94 60 0 c41 0 74 -7 99 -20z"/>
<path d="M1696 2554 c-14 -13 -16 -65 -16 -409 l0 -393 23 -6 c35 -9 407 -7
450 3 56 13 113 57 149 115 25 42 31 62 32 111 1 76 -20 121 -81 175 -46 40
-46 41 -26 55 39 27 73 99 73 155 0 93 -43 148 -149 189 -46 19 -74 21 -246
21 -163 0 -196 -3 -209 -16z m330 -179 c31 -7 45 -45 28 -78 -15 -29 -72 -51
-114 -45 -23 3 -25 8 -28 65 -4 75 5 79 114 58z m41 -337 c22 -22 25 -31 19
-63 -6 -31 -14 -40 -52 -56 -26 -12 -60 -19 -82 -17 l-37 3 -3 84 -3 83 66 -4
c54 -3 70 -9 92 -30z"/>
<path d="M2430 2560 c-13 -8 -15 -66 -18 -405 l-3 -395 26 -10 c35 -13 471
-13 496 0 15 9 19 22 19 65 0 107 -13 115 -192 115 l-109 0 3 58 3 57 110 3
c98 2 112 5 128 23 20 25 24 138 5 157 -8 8 -47 12 -107 12 -141 0 -141 0
-141 71 l0 59 113 0 c154 0 161 5 165 100 2 62 0 77 -14 87 -22 16 -460 18
-484 3z"/>
<path d="M3044 2556 c-18 -14 -19 -32 -22 -405 l-3 -391 26 -10 c29 -11 156
-13 193 -4 21 6 22 10 22 144 0 116 2 139 16 144 9 3 62 6 119 6 93 0 105 2
115 19 13 25 13 112 0 145 -9 25 -12 26 -107 26 -144 0 -143 0 -143 75 l0 63
130 3 c88 3 133 8 142 17 19 19 18 160 -2 172 -8 5 -116 10 -241 10 -179 0
-229 -3 -245 -14z"/>
<path d="M3640 2560 c-13 -8 -15 -66 -18 -402 -2 -362 -1 -394 15 -405 17 -13
167 -18 197 -7 14 5 16 28 16 144 0 116 2 139 16 144 9 3 62 6 119 6 132 0
139 5 133 102 -2 46 -9 72 -18 78 -8 6 -63 10 -121 10 -125 0 -131 4 -127 82
l3 53 126 5 c133 5 159 14 159 54 0 18 3 16 20 -11 12 -20 28 -33 40 -33 19 0
20 -6 20 -228 l0 -229 -25 -11 c-31 -14 -45 -48 -45 -107 0 -33 5 -47 19 -54
19 -11 536 -14 577 -5 14 4 34 29 57 72 70 134 81 152 89 152 10 0 36 -42 85
-139 26 -49 46 -76 63 -83 28 -11 224 -7 236 5 9 8 -13 53 -67 137 -88 136
-149 242 -149 260 0 12 25 63 56 113 30 51 60 101 67 112 6 11 26 43 43 70 69
110 60 125 -76 125 -115 0 -109 5 -192 -149 -58 -108 -55 -108 -110 8 -17 36
-41 82 -54 103 l-24 38 -109 0 c-84 0 -111 -3 -121 -15 -11 -13 -15 -13 -33 0
-17 12 -55 15 -173 15 -161 0 -174 -4 -187 -55 -4 -19 -5 -18 -6 2 -3 50 -15
53 -259 53 -126 0 -234 -5 -242 -10z m996 -220 c53 -91 97 -176 97 -190 0 -14
-13 -45 -30 -70 -16 -25 -48 -74 -71 -110 -22 -36 -45 -69 -49 -75 -5 -5 -17
-24 -28 -42 -22 -37 -35 -34 -35 7 0 22 -7 33 -29 44 -16 9 -31 23 -35 31 -8
21 -8 408 0 429 3 9 12 16 19 16 24 0 45 31 45 65 0 32 9 69 15 63 2 -2 47
-77 101 -168z"/>
</g>
</svg>
